<?xml version="1.0" encoding="UTF-8"?>
<svg xmlns="http://www.w3.org/2000/svg" xmlns:xlink="http://www.w3.org/1999/xlink" width="25px" height="25px" viewBox="0 0 25 25" version="1.1">
<g id="surface1">
<path style=" stroke:none;fill-rule:nonzero;fill:rgb(81.176471%,94.117647%,61.960784%);fill-opacity:1;" d="M 6.757812 6.867188 L 24.125 6.867188 L 24.125 24.234375 L 6.757812 24.234375 Z M 6.757812 6.867188 "/>
<path style=" stroke:none;fill-rule:nonzero;fill:rgb(31.372549%,48.627451%,36.078431%);fill-opacity:1;" d="M 24.125 6.105469 L 6.757812 6.105469 C 6.335938 6.105469 5.992188 6.445312 5.992188 6.867188 L 5.992188 17.367188 L 1.640625 17.367188 L 1.640625 14.472656 C 1.640625 14.050781 1.296875 13.707031 0.875 13.707031 C 0.453125 13.707031 0.109375 14.050781 0.109375 14.472656 L 0.109375 18.132812 C 0.109375 18.554688 0.453125 18.894531 0.875 18.894531 L 5.992188 18.894531 L 5.992188 24.234375 C 5.992188 24.65625 6.335938 25 6.757812 25 L 24.125 25 C 24.546875 25 24.890625 24.65625 24.890625 24.234375 L 24.890625 6.867188 C 24.890625 6.445312 24.546875 6.105469 24.125 6.105469 Z M 23.359375 23.472656 L 7.523438 23.472656 L 7.523438 7.632812 L 23.359375 7.632812 Z M 23.359375 23.472656 "/>
<path style=" stroke:none;fill-rule:nonzero;fill:rgb(31.372549%,48.627451%,36.078431%);fill-opacity:1;" d="M 0.875 9.472656 C 1.296875 9.472656 1.640625 9.132812 1.640625 8.710938 L 1.640625 1.527344 L 17.476562 1.527344 L 17.476562 3.339844 C 17.476562 3.761719 17.820312 4.101562 18.242188 4.101562 C 18.664062 4.101562 19.007812 3.761719 19.007812 3.339844 L 19.007812 0.765625 C 19.007812 0.34375 18.664062 0 18.242188 0 L 0.875 0 C 0.453125 0 0.109375 0.34375 0.109375 0.765625 L 0.109375 8.710938 C 0.109375 9.132812 0.453125 9.472656 0.875 9.472656 Z M 0.875 9.472656 "/>
<path style=" stroke:none;fill-rule:nonzero;fill:rgb(31.372549%,48.627451%,36.078431%);fill-opacity:1;" d="M 15.519531 16.238281 C 15.714844 16.238281 15.910156 16.164062 16.058594 16.015625 L 19.222656 12.851562 L 19.222656 14.625 C 19.222656 15.046875 19.566406 15.390625 19.988281 15.390625 C 20.410156 15.390625 20.753906 15.046875 20.753906 14.625 L 20.753906 11.003906 C 20.753906 10.582031 20.410156 10.238281 19.988281 10.238281 L 16.367188 10.238281 C 15.945312 10.238281 15.601562 10.582031 15.601562 11.003906 C 15.601562 11.425781 15.945312 11.769531 16.367188 11.769531 L 18.144531 11.769531 L 14.976562 14.933594 C 14.679688 15.234375 14.679688 15.71875 14.976562 16.015625 C 15.125 16.164062 15.324219 16.238281 15.519531 16.238281 Z M 15.519531 16.238281 "/>
<path style=" stroke:none;fill-rule:nonzero;fill:rgb(31.372549%,48.627451%,36.078431%);fill-opacity:1;" d="M 10.894531 20.863281 L 14.515625 20.863281 C 14.9375 20.863281 15.277344 20.523438 15.277344 20.101562 C 15.277344 19.675781 14.9375 19.335938 14.515625 19.335938 L 12.738281 19.335938 L 13.785156 18.289062 C 14.082031 17.992188 14.082031 17.507812 13.785156 17.207031 C 13.484375 16.910156 13 16.910156 12.703125 17.207031 L 11.65625 18.253906 L 11.65625 16.480469 C 11.65625 16.054688 11.316406 15.714844 10.894531 15.714844 C 10.46875 15.714844 10.128906 16.054688 10.128906 16.480469 L 10.128906 20.101562 C 10.128906 20.523438 10.46875 20.863281 10.894531 20.863281 Z M 10.894531 20.863281 "/>
</g>
</svg>
